<?xml version="1.0" encoding="UTF-8"?>
<svg id="_图层_2" data-name="图层 2" xmlns="http://www.w3.org/2000/svg" xmlns:xlink="http://www.w3.org/1999/xlink" viewBox="0 0 145.83 36.59">
  <defs>
    <style>
      .cls-1 {
        fill: #1a1a1a;
      }

      .cls-2 {
        fill: url(#_未命名的渐变_22);
      }

      .cls-3 {
        fill: url(#_未命名的渐变_22-5);
      }

      .cls-4 {
        fill: url(#_未命名的渐变_22-6);
      }

      .cls-5 {
        fill: url(#_未命名的渐变_22-7);
      }

      .cls-6 {
        fill: url(#_未命名的渐变_22-3);
      }

      .cls-7 {
        fill: url(#_未命名的渐变_22-4);
      }

      .cls-8 {
        fill: url(#_未命名的渐变_22-2);
      }
    </style>
    <linearGradient id="_未命名的渐变_22" data-name="未命名的渐变 22" x1="12.73" y1="20.9" x2="18.86" y2="20.9" gradientUnits="userSpaceOnUse">
      <stop offset="0" stop-color="#ff8325"/>
      <stop offset="1" stop-color="#ff3c25"/>
    </linearGradient>
    <linearGradient id="_未命名的渐变_22-2" data-name="未命名的渐变 22" x1="0" y1="32.44" x2="5.78" y2="32.44" xlink:href="#_未命名的渐变_22"/>
    <linearGradient id="_未命名的渐变_22-3" data-name="未命名的渐变 22" x1="7.44" y1="32.29" x2="11.78" y2="32.29" xlink:href="#_未命名的渐变_22"/>
    <linearGradient id="_未命名的渐变_22-4" data-name="未命名的渐变 22" x1="13.14" y1="32.33" x2="20.17" y2="32.33" xlink:href="#_未命名的渐变_22"/>
    <linearGradient id="_未命名的渐变_22-5" data-name="未命名的渐变 22" x1="21.18" y1="32.33" x2="26.98" y2="32.33" xlink:href="#_未命名的渐变_22"/>
    <linearGradient id="_未命名的渐变_22-6" data-name="未命名的渐变 22" x1="28.4" y1="32.33" x2="33.99" y2="32.33" xlink:href="#_未命名的渐变_22"/>
    <linearGradient id="_未命名的渐变_22-7" data-name="未命名的渐变 22" x1="12.09" y1="18.06" x2="64.21" y2="18.06" xlink:href="#_未命名的渐变_22"/>
  </defs>
  <g id="_图层_1-2" data-name="图层 1">
    <path class="cls-2" d="M16.62,17.03h.03s0,.03-.01,.05c-.16,.47-.23,.95-.14,1.44,.07,.43,.23,.82,.48,1.18,.24,.34,.43,.7,.55,1.1,.02,.07,.04,.13,.06,.2,0,0,0,0,.01,0,.18-.59,.18-1.19,.02-1.79,.03,0,.05,.02,.07,.03,.17,.13,.32,.28,.46,.45,.25,.3,.43,.64,.56,1.01,.15,.43,.17,.87,.14,1.32-.02,.27-.1,.54-.2,.8-.26,.66-.7,1.17-1.3,1.54-.38,.23-.8,.37-1.24,.41-.3,.03-.61,.03-.91-.03-.43-.09-.82-.26-1.17-.52-.28-.21-.51-.45-.71-.74-.29-.41-.47-.87-.55-1.37-.02-.11-.03-.21-.04-.32v-.36s0-.03,0-.04c.01-.2,.05-.39,.1-.58,.14-.48,.39-.9,.73-1.26,.02-.02,.03-.05,.06-.04,.03,0,.02,.04,.03,.06,.09,.37,.25,.71,.47,1.03,.01,.02,.02,.04,.05,.05,0-.1-.03-.19-.04-.29-.05-.56,.06-1.09,.3-1.59,.2-.41,.47-.77,.82-1.06,.27-.23,.56-.4,.89-.52,.15-.06,.31-.09,.47-.13Z"/>
    <path class="cls-1" d="M.03,24.32v-6.83c0-.14,.05-.26,.16-.36,.11-.11,.23-.16,.36-.16h3.51c.15,0,.28,.05,.39,.16,.09,.11,.14,.23,.14,.36,0,.2-.08,.35-.24,.44-.1,.06-.21,.08-.32,.08H1.16s-.07,.03-.07,.07v2.31s.03,.07,.07,.07h2.99c.15,0,.27,.05,.36,.16,.11,.11,.16,.23,.16,.36,0,.15-.05,.28-.16,.39-.09,.09-.21,.14-.36,.14H1.16s-.07,.03-.07,.07v2.77c-.06,.65-1.06,.64-1.07-.02Z"/>
    <path class="cls-1" d="M7.15,17.4v6.17c0,.09,.07,.16,.16,.16h2.81c.36,0,.54,.17,.54,.52s-.18,.52-.54,.52h-3.51c-.29,0-.52-.23-.52-.52v-6.83c0-.3,.24-.54,.54-.54,.33,0,.51,.17,.53,.52Z"/>
    <path class="cls-1" d="M29.47,24.25v-6.8c0-.15,.05-.27,.16-.36,.09-.11,.21-.16,.36-.16h3.45c.14,0,.26,.05,.36,.16,.11,.09,.16,.21,.16,.36,0,.14-.05,.26-.16,.36-.11,.09-.23,.14-.36,.14h-2.81c-.06,0-.11,.05-.11,.11v2.18c0,.06,.05,.11,.11,.11h2.9c.14,0,.26,.05,.36,.16,.11,.11,.16,.23,.16,.36,0,.15-.05,.27-.16,.36-.11,.11-.23,.16-.36,.16h-2.9c-.06,0-.11,.05-.11,.11v2.11c0,.06,.05,.11,.11,.11h2.81c.14,0,.26,.05,.36,.14,.11,.11,.16,.23,.16,.36,0,.15-.05,.27-.16,.36-.11,.11-.23,.16-.36,.16h-3.29c-.65,.05-.69-.15-.68-.5Z"/>
    <path class="cls-8" d="M3.55,36.03c-.49,0-.95-.09-1.38-.28-.43-.19-.81-.44-1.14-.77-.33-.33-.58-.71-.75-1.14-.19-.44-.28-.91-.28-1.4s.09-.95,.28-1.4c.17-.43,.42-.81,.75-1.14,.33-.33,.71-.59,1.14-.77,.43-.19,.89-.28,1.38-.28,.53,0,1.03,.11,1.51,.34,.1,.04,.18,.1,.24,.17,.07,.09,.11,.19,.11,.3,0,.13-.05,.24-.15,.34-.09,.09-.19,.13-.32,.13-.09,0-.16-.02-.24-.06-.36-.17-.74-.26-1.14-.26-.36,0-.7,.06-1.01,.19-.32,.14-.59,.33-.84,.56-.23,.24-.42,.52-.56,.84-.13,.33-.19,.67-.19,1.03s.06,.7,.19,1.03c.14,.3,.33,.57,.56,.82,.24,.24,.52,.44,.84,.58,.32,.13,.65,.19,1.01,.19,.52,0,.99-.14,1.42-.43,.1-.1,.22-.15,.34-.15s.24,.05,.34,.15c.09,.1,.13,.21,.13,.34,0,.17-.07,.31-.22,.41-.62,.43-1.29,.65-2.02,.65Z"/>
    <path class="cls-6" d="M8.45,29.04v5.84c0,.09,.07,.16,.16,.16h2.66c.34,0,.52,.16,.52,.49s-.17,.49-.52,.49h-3.27c-.31,0-.55-.25-.55-.55v-6.34c0-.36,.33-.65,.68-.57,.21,.05,.32,.21,.33,.48Z"/>
    <path class="cls-7" d="M16.66,28.66c.96,0,1.78,.36,2.47,1.07,.69,.72,1.03,1.58,1.03,2.6s-.34,1.88-1.03,2.6c-.69,.72-1.51,1.07-2.47,1.07s-1.81-.36-2.49-1.07c-.69-.72-1.03-1.58-1.03-2.6s.34-1.88,1.03-2.6c.69-.72,1.52-1.07,2.49-1.07Zm0,6.36c.7,0,1.3-.26,1.81-.77,.5-.53,.75-1.17,.75-1.91s-.25-1.38-.75-1.89c-.5-.53-1.1-.8-1.81-.8s-1.33,.27-1.83,.8c-.5,.52-.75,1.15-.75,1.89s.25,1.38,.75,1.91c.5,.52,1.11,.77,1.83,.77Z"/>
    <path class="cls-3" d="M22.14,33.39c.01,.13,.04,.25,.06,.37,.09,.37,.24,.67,.47,.88,.32,.32,.77,.47,1.38,.45,.67-.03,1.18-.23,1.53-.6,.19-.22,.32-.48,.39-.8,.05-.15,.07-.37,.06-.54h0v-4.04c0-.32,.16-.47,.47-.47s.47,.16,.47,.47l-.02,4.36h0c-.01,.26-.06,.51-.15,.75-.13,.34-.31,.64-.54,.9-.5,.56-1.23,.86-2.19,.9h-.15c-.8,0-1.45-.24-1.93-.73-.26-.24-.45-.55-.58-.92-.1-.27-.16-.55-.19-.84h0l-.04-4.43c0-.32,.16-.47,.47-.47s.47,.16,.47,.47v4.06"/>
    <path class="cls-4" d="M30.59,36.03h-1.85c-.19,0-.34-.15-.34-.34v-6.58c.01-.13,.06-.24,.15-.34,.09-.09,.19-.13,.3-.13s.22,.04,.3,.13c.1,.1,.15,.22,.15,.34v5.59c0,.19,.15,.34,.34,.34h.95c.34,0,.67-.07,.97-.22,.3-.13,.57-.32,.8-.58,.23-.24,.41-.53,.54-.86,.13-.33,.19-.68,.19-1.05s-.06-.7-.19-1.03c-.13-.33-.3-.62-.52-.86-.23-.24-.49-.44-.77-.58-.3-.14-.62-.22-.95-.24h-.02c-.13,0-.24-.04-.32-.13-.09-.1-.13-.22-.13-.37,0-.13,.04-.24,.13-.34,.09-.1,.19-.15,.32-.15,.44,.01,.87,.11,1.29,.3,.42,.19,.77,.45,1.08,.8,.32,.34,.56,.74,.73,1.18,.17,.44,.26,.92,.26,1.42s-.09,.98-.26,1.44c-.17,.44-.42,.84-.73,1.18-.32,.33-.67,.59-1.08,.77-.43,.2-.87,.3-1.33,.3Z"/>
    <path class="cls-1" d="M25.03,20.05c.29-.85,.58-1.71,.88-2.56,.05-.14,.15-.31,.27-.38,.31-.19,.64,.01,.7,.42,.06,.43,.11,.86,.16,1.29,.14,1.13,.28,2.27,.42,3.4,.08,.68,.17,1.36,.25,2.04,.03,.25-.06,.42-.24,.5-.29,.13-.63-.07-.67-.39-.1-.74-.19-1.48-.29-2.22-.1-.81-.21-1.61-.35-2.43-.03,.08-.07,.16-.09,.24-.45,1.31-.89,2.62-1.34,3.94-.03,.08-.07,.16-.11,.24-.1,.22-.27,.29-.5,.26-.21-.02-.31-.17-.37-.35-.37-1.1-.75-2.21-1.13-3.31-.12-.34-.24-.68-.4-1.02-.06,.48-.13,.97-.19,1.45-.13,1.07-.26,2.14-.4,3.2-.04,.32-.2,.45-.51,.42-.26-.02-.43-.2-.41-.49,.05-.62,.14-1.23,.21-1.85,.15-1.23,.3-2.46,.45-3.69,.05-.41,.1-.83,.16-1.24,.04-.29,.21-.49,.42-.5,.25-.02,.42,.12,.52,.42,.54,1.56,1.07,3.13,1.61,4.69,.03,.08,.06,.15,.08,.23,0,.02,.04,.02,.05,0,.27-.78,.53-1.55,.8-2.33Z"/>
    <path class="cls-5" d="M53.23,14.42h-2.29c-1.98-2.1-4.78-3.41-7.89-3.41-.64,0-1.26,.06-1.87,.16-1.63-6.42-7.46-11.18-14.38-11.18-7.51,0-13.73,5.61-14.7,12.85-.07,.53,.34,.99,.87,.99h0c.44,0,.81-.33,.87-.76,.86-6.39,6.34-11.32,12.96-11.32,6.1,0,11.24,4.2,12.68,9.86,.07,.26,.12,.52,.17,.79,.09,.49,.59,.79,1.07,.67,.26-.07,.52-.13,.79-.17,.5-.09,1.01-.13,1.54-.13,1.94,0,3.73,.61,5.21,1.65,.35,.25,.68,.52,.99,.81,.32,.3,.61,.61,.88,.95h0c.21,.27,.56,.39,.89,.3,.42-.11,.86-.19,1.3-.24,.05,0,.1-.01,.16-.02,.29-.03,.58-.04,.88-.04s.59,.01,.88,.04c4.6,.44,8.21,4.33,8.21,9.04s-3.61,8.6-8.21,9.04c-.29,.03-.58,.04-.88,.04s-.59-.01-.88-.04v.04h-15.54c-.49,0-.88,.39-.88,.88h0c0,.49,.39,.88,.88,.88h16.42c6.02,0,10.9-4.92,10.85-10.95-.06-5.97-5.01-10.74-10.99-10.74Z"/>
    <g>
      <path class="cls-1" d="M116.76,36.59h-8.9c-.52,0-.95-.42-.95-.95v-9.36c0-.25,.1-.49,.28-.67,.18-.18,.42-.28,.67-.28h2.35c.62,.02,1.22-.23,1.65-.67l.57-.58c.37-.37,.97-.38,1.34,0s.38,.97,0,1.34l-.57,.58c-.78,.79-1.87,1.25-2.98,1.25h-1.42s0,7.45,0,7.45h7.96c.68,0,1.24-.55,1.24-1.23v-6.21h-2.52c-.52,0-.95-.42-.95-.95s.42-.95,.95-.95h3.47c.52,0,.95,.42,.95,.95v7.15c0,1.72-1.4,3.13-3.13,3.13Z"/>
      <path class="cls-1" d="M107.53,23.73c-.33,0-.64-.17-.82-.47-.26-.45-.11-1.03,.34-1.29,2.31-1.34,2.7-3.69,2.7-3.71,.08-.52,.56-.87,1.08-.79,.52,.08,.87,.56,.79,1.08-.02,.13-.54,3.27-3.62,5.06-.15,.09-.31,.13-.47,.13Z"/>
      <path class="cls-1" d="M116.08,24.4c-.24,0-.48-.09-.67-.28-.37-.37-.37-.97,0-1.34l1.24-1.24h-6.63c-.52,0-.95-.42-.95-.95s.42-.95,.95-.95h8.92c.38,0,.73,.23,.87,.58,.15,.35,.07,.76-.21,1.03l-2.86,2.86c-.18,.18-.43,.28-.67,.28Z"/>
      <path class="cls-1" d="M112.08,31.67h-4.22c-.52,0-.95-.42-.95-.95s.42-.95,.95-.95h4.22c.52,0,.95,.42,.95,.95s-.42,.95-.95,.95Z"/>
      <path class="cls-1" d="M118.94,31.67h-4.22c-.52,0-.95-.42-.95-.95s.42-.95,.95-.95h4.22c.52,0,.95,.42,.95,.95s-.42,.95-.95,.95Z"/>
      <path class="cls-1" d="M143.23,21.54h-15.47c-.52,0-.95-.42-.95-.95s.42-.95,.95-.95h15.47c.52,0,.95,.42,.95,.95s-.42,.95-.95,.95Z"/>
      <path class="cls-1" d="M144.89,27.25h-19.55c-.52,0-.95-.42-.95-.95s.42-.95,.95-.95h19.55c.52,0,.95,.42,.95,.95s-.42,.95-.95,.95Z"/>
      <path class="cls-1" d="M144.52,36.59h-18.91c-.38,0-.73-.23-.87-.58-.15-.35-.07-.76,.21-1.03l9.31-9.31c.37-.37,.97-.37,1.34,0,.37,.37,.37,.97,0,1.34l-7.69,7.69h14.34l-4.03-4.03c-.37-.37-.37-.97,0-1.34,.37-.37,.97-.37,1.34,0l5.65,5.65c.27,.27,.35,.68,.21,1.03-.15,.35-.49,.58-.87,.58Z"/>
      <path class="cls-1" d="M99.85,26.87c-.47,0-.88-.35-.94-.83l-.61-4.91c-.06-.52,.3-.99,.82-1.06,.52-.06,.99,.3,1.06,.82l.61,4.91c.06,.52-.3,.99-.82,1.06-.04,0-.08,0-.12,0Z"/>
      <path class="cls-1" d="M104.83,26.87s-.08,0-.12,0c-.52-.07-.89-.54-.82-1.06l.62-4.91c.07-.52,.54-.88,1.06-.82,.52,.07,.89,.54,.82,1.06l-.62,4.91c-.06,.48-.47,.83-.94,.83Z"/>
      <path class="cls-1" d="M106.05,35.2l-3.09-5.91c-.1-.2-.12-.43-.05-.64l.31-.94c.03-.1,.05-.2,.05-.3v-8.98c0-.52-.4-.98-.92-.99s-.97,.42-.97,.95v8.69l-.06,.37-2.57,7.85c-.16,.49,.07,1.04,.56,1.22,.11,.04,.22,.06,.33,.06,.4,0,.77-.25,.9-.65l1.45-4.43s0,0,0,0l2.39,4.57c.17,.32,.5,.51,.84,.51,.15,0,.3-.03,.44-.11,.46-.24,.64-.81,.4-1.28Z"/>
      <path class="cls-1" d="M74.03,36.59c-.23,0-.47-.09-.65-.26-.39-.37-.37-1.01,0-1.38l8.97-9c.26-.27,.41-.63,.41-1v-6.73c0-.52,.4-.97,.92-.99s.98,.41,.98,.95v7.75c0,.25-.1,.49-.28,.67l-9.69,9.72c-.18,.19-.43,.28-.67,.28Z"/>
      <path class="cls-1" d="M77.74,27.28c-.33,0-.65-.17-.82-.48l-3.28-5.74c-.26-.45-.1-1.03,.35-1.29,.45-.26,1.03-.1,1.29,.35l3.28,5.74c.26,.45,.1,1.03-.35,1.29-.15,.08-.31,.12-.47,.12Z"/>
      <path class="cls-1" d="M89.39,27.48c-.16,0-.32-.04-.47-.13-.45-.26-.61-.84-.35-1.29l3.31-5.72c.26-.45,.84-.61,1.29-.35s.61,.84,.35,1.29l-3.31,5.72c-.18,.3-.49,.47-.82,.47Z"/>
      <path class="cls-1" d="M93.12,36.59c-.22,0-.43-.07-.61-.22l-7.33-6.2c-.4-.34-.45-.94-.11-1.33,.34-.4,.94-.45,1.33-.11l7.33,6.2c.4,.34,.45,.94,.11,1.33-.19,.22-.45,.34-.72,.34Z"/>
    </g>
  </g>
</svg>