<?xml version="1.0" encoding="UTF-8"?>
<svg id="_图层_2" data-name="图层 2" xmlns="http://www.w3.org/2000/svg" xmlns:xlink="http://www.w3.org/1999/xlink" viewBox="0 0 123.58 31">
  <defs>
    <style>
      .cls-1 {
        fill: #fff;
      }

      .cls-2 {
        fill: url(#_未命名的渐变_22);
      }

      .cls-3 {
        fill: url(#_未命名的渐变_22-5);
      }

      .cls-4 {
        fill: url(#_未命名的渐变_22-6);
      }

      .cls-5 {
        fill: url(#_未命名的渐变_22-7);
      }

      .cls-6 {
        fill: url(#_未命名的渐变_22-3);
      }

      .cls-7 {
        fill: url(#_未命名的渐变_22-4);
      }

      .cls-8 {
        fill: url(#_未命名的渐变_22-2);
      }
    </style>
    <linearGradient id="_未命名的渐变_22" data-name="未命名的渐变 22" x1="10.78" y1="17.71" x2="15.98" y2="17.71" gradientUnits="userSpaceOnUse">
      <stop offset="0" stop-color="#ff8325"/>
      <stop offset="1" stop-color="#ff3c25"/>
    </linearGradient>
    <linearGradient id="_未命名的渐变_22-2" data-name="未命名的渐变 22" x1="0" y1="27.49" x2="4.9" y2="27.49" xlink:href="#_未命名的渐变_22"/>
    <linearGradient id="_未命名的渐变_22-3" data-name="未命名的渐变 22" x1="6.3" y1="27.36" x2="9.98" y2="27.36" xlink:href="#_未命名的渐变_22"/>
    <linearGradient id="_未命名的渐变_22-4" data-name="未命名的渐变 22" x1="11.13" y1="27.4" x2="17.09" y2="27.4" xlink:href="#_未命名的渐变_22"/>
    <linearGradient id="_未命名的渐变_22-5" data-name="未命名的渐变 22" x1="17.94" y1="27.4" x2="22.86" y2="27.4" xlink:href="#_未命名的渐变_22"/>
    <linearGradient id="_未命名的渐变_22-6" data-name="未命名的渐变 22" x1="24.07" y1="27.4" x2="28.8" y2="27.4" xlink:href="#_未命名的渐变_22"/>
    <linearGradient id="_未命名的渐变_22-7" data-name="未命名的渐变 22" x1="10.24" y1="15.3" x2="54.41" y2="15.3" xlink:href="#_未命名的渐变_22"/>
  </defs>
  <g id="_图层_1-2" data-name="图层 1">
    <path class="cls-2" d="M14.08,14.43h.03s0,.03,0,.04c-.14,.4-.19,.8-.12,1.22,.06,.36,.2,.7,.41,1,.2,.29,.37,.6,.46,.93,.02,.06,.03,.11,.05,.17,0,0,0,0,.01,0,.15-.5,.15-1.01,.01-1.52,.03,0,.04,.02,.06,.03,.14,.11,.27,.24,.39,.38,.21,.26,.37,.54,.48,.86,.13,.36,.14,.74,.12,1.12-.01,.23-.08,.46-.17,.67-.22,.56-.59,.99-1.1,1.3-.32,.2-.68,.31-1.05,.35-.26,.03-.51,.03-.77-.03-.36-.07-.69-.22-.99-.44-.23-.17-.43-.38-.6-.62-.24-.35-.4-.74-.47-1.16-.01-.09-.02-.18-.03-.27v-.31s0-.02,0-.04c.01-.17,.04-.33,.09-.49,.12-.41,.33-.76,.62-1.07,.01-.01,.03-.04,.05-.03,.02,0,.02,.03,.02,.05,.08,.31,.21,.6,.39,.87,.01,.01,.02,.03,.04,.04,0-.09-.02-.16-.03-.24-.04-.47,.05-.92,.25-1.35,.17-.35,.4-.65,.7-.9,.23-.19,.48-.34,.76-.44,.13-.05,.27-.08,.4-.11Z"/>
    <path class="cls-1" d="M.03,20.61v-5.78c0-.12,.04-.22,.13-.31,.09-.09,.19-.13,.31-.13H3.45c.13,0,.24,.04,.33,.13,.08,.09,.12,.19,.12,.31,0,.17-.07,.3-.21,.38-.08,.05-.17,.07-.27,.07H.98s-.06,.03-.06,.06v1.96s.03,.06,.06,.06H3.52c.13,0,.23,.04,.31,.13,.09,.09,.13,.19,.13,.31,0,.13-.04,.24-.13,.33-.08,.08-.18,.12-.31,.12H.98s-.06,.03-.06,.06v2.35c-.05,.55-.89,.55-.9-.02Z"/>
    <path class="cls-1" d="M6.06,14.75v5.23c0,.07,.06,.13,.13,.13h2.38c.31,0,.46,.15,.46,.44s-.15,.44-.46,.44h-2.98c-.24,0-.44-.2-.44-.44v-5.78c0-.25,.2-.46,.46-.46,.28,0,.43,.15,.45,.44Z"/>
    <path class="cls-1" d="M24.97,20.55v-5.76c0-.13,.04-.23,.13-.31,.08-.09,.18-.13,.31-.13h2.92c.12,0,.22,.05,.31,.13,.09,.08,.13,.18,.13,.31,0,.12-.05,.22-.13,.31-.09,.08-.19,.12-.31,.12h-2.38c-.05,0-.09,.04-.09,.09v1.85c0,.05,.04,.09,.09,.09h2.46c.12,0,.22,.04,.31,.13,.09,.09,.13,.19,.13,.31,0,.13-.04,.23-.13,.31-.09,.09-.19,.13-.31,.13h-2.46c-.05,0-.09,.04-.09,.09v1.79c0,.05,.04,.09,.09,.09h2.38c.12,0,.22,.04,.31,.12,.09,.09,.13,.19,.13,.31,0,.13-.05,.23-.13,.31-.09,.09-.19,.13-.31,.13h-2.79c-.55,.04-.59-.13-.58-.42Z"/>
    <path class="cls-8" d="M3.01,30.53c-.41,0-.8-.08-1.17-.24-.36-.16-.69-.38-.97-.66-.28-.28-.49-.6-.64-.97-.16-.38-.24-.77-.24-1.18s.08-.81,.24-1.18c.15-.36,.36-.69,.64-.97,.28-.28,.6-.5,.97-.66,.36-.16,.75-.24,1.17-.24,.45,0,.87,.1,1.28,.29,.08,.04,.15,.09,.2,.15,.06,.07,.09,.16,.09,.26,0,.11-.04,.21-.13,.29-.07,.07-.16,.11-.27,.11-.07,0-.14-.02-.2-.05-.3-.15-.63-.22-.97-.22-.3,0-.59,.05-.86,.16-.27,.12-.5,.28-.71,.47-.19,.21-.35,.44-.47,.71-.11,.28-.16,.57-.16,.87s.05,.6,.16,.87c.12,.26,.28,.49,.47,.69,.21,.21,.44,.37,.71,.49,.27,.11,.55,.16,.86,.16,.44,0,.84-.12,1.2-.36,.08-.08,.18-.13,.29-.13s.21,.04,.29,.13c.07,.09,.11,.18,.11,.29,0,.15-.06,.26-.18,.35-.52,.36-1.09,.55-1.71,.55Z"/>
    <path class="cls-6" d="M7.16,24.61v4.95c0,.07,.06,.13,.13,.13h2.25c.29,0,.44,.14,.44,.42s-.15,.42-.44,.42h-2.77c-.26,0-.47-.21-.47-.47v-5.37c0-.31,.28-.55,.58-.48,.18,.04,.27,.18,.28,.4Z"/>
    <path class="cls-7" d="M14.12,24.28c.81,0,1.51,.3,2.1,.91,.58,.61,.87,1.34,.87,2.2s-.29,1.6-.87,2.2c-.58,.61-1.28,.91-2.1,.91s-1.53-.3-2.11-.91c-.58-.61-.87-1.34-.87-2.2s.29-1.6,.87-2.2c.58-.61,1.29-.91,2.11-.91Zm0,5.39c.59,0,1.1-.22,1.53-.66,.43-.45,.64-.99,.64-1.62s-.21-1.17-.64-1.6c-.43-.45-.94-.67-1.53-.67s-1.12,.22-1.55,.67c-.43,.44-.64,.97-.64,1.6s.21,1.17,.64,1.62c.42,.44,.94,.66,1.55,.66Z"/>
    <path class="cls-3" d="M18.76,28.29c.01,.11,.03,.21,.05,.31,.07,.32,.21,.56,.4,.75,.27,.27,.66,.39,1.17,.38,.57-.02,1-.19,1.29-.51,.16-.18,.27-.41,.33-.67,.04-.13,.06-.31,.05-.46h0v-3.42c0-.27,.13-.4,.4-.4s.4,.13,.4,.4l-.02,3.7h0c-.01,.22-.05,.43-.13,.64-.11,.29-.26,.55-.46,.77-.43,.47-1.04,.73-1.86,.77h-.13c-.68,0-1.23-.21-1.64-.62-.22-.21-.38-.47-.49-.78-.09-.23-.14-.47-.16-.71h0l-.04-3.75c0-.27,.13-.4,.4-.4s.4,.13,.4,.4v3.44"/>
    <path class="cls-4" d="M25.92,30.53h-1.57c-.16,0-.29-.13-.29-.29v-5.58c.01-.11,.05-.21,.13-.29,.07-.07,.16-.11,.26-.11s.18,.04,.26,.11c.08,.09,.13,.18,.13,.29v4.74c0,.16,.13,.29,.29,.29h.81c.29,0,.56-.06,.82-.18,.26-.11,.48-.27,.67-.49,.19-.21,.35-.45,.46-.73,.11-.28,.16-.58,.16-.89s-.05-.59-.16-.87c-.11-.28-.26-.52-.44-.73-.19-.21-.41-.37-.66-.49-.26-.12-.52-.19-.8-.2h-.02c-.11,0-.2-.04-.27-.11-.07-.08-.11-.19-.11-.31,0-.11,.04-.21,.11-.29,.07-.08,.16-.13,.27-.13,.38,.01,.74,.1,1.09,.26,.35,.16,.66,.38,.91,.67,.27,.29,.47,.63,.62,1,.15,.38,.22,.78,.22,1.2s-.07,.83-.22,1.22c-.15,.38-.35,.71-.62,1-.27,.28-.57,.5-.91,.66-.36,.17-.74,.26-1.13,.26Z"/>
    <path class="cls-1" d="M21.21,16.99c.25-.72,.49-1.45,.75-2.17,.04-.12,.13-.26,.23-.32,.27-.16,.54,.01,.59,.35,.05,.36,.09,.73,.13,1.09,.12,.96,.24,1.92,.35,2.88,.07,.58,.15,1.15,.21,1.73,.02,.21-.05,.36-.21,.43-.25,.11-.53-.06-.57-.33-.09-.63-.16-1.26-.24-1.88-.09-.68-.17-1.36-.3-2.06-.03,.07-.06,.13-.08,.2-.38,1.11-.75,2.22-1.13,3.34-.02,.07-.06,.14-.09,.21-.08,.19-.23,.24-.42,.22-.18-.02-.26-.14-.31-.29-.32-.93-.63-1.87-.95-2.8-.1-.29-.2-.58-.34-.87-.05,.41-.11,.82-.16,1.23-.11,.91-.22,1.81-.34,2.72-.04,.27-.17,.38-.43,.36-.22-.02-.36-.17-.34-.41,.05-.52,.12-1.04,.18-1.57,.13-1.04,.26-2.08,.39-3.12,.04-.35,.09-.7,.13-1.05,.03-.24,.18-.41,.35-.43,.21-.02,.35,.1,.44,.36,.45,1.33,.91,2.65,1.36,3.98,.02,.07,.05,.13,.07,.2,0,.02,.04,.02,.04,0,.23-.66,.45-1.32,.68-1.97Z"/>
    <path class="cls-5" d="M45.1,12.22h-1.94c-1.68-1.78-4.05-2.89-6.68-2.89-.54,0-1.07,.05-1.58,.14C33.51,4.03,28.57,0,22.71,0c-6.36,0-11.64,4.75-12.46,10.89-.06,.45,.29,.84,.74,.84h0c.37,0,.69-.28,.74-.65,.73-5.41,5.38-9.6,10.98-9.6,5.17,0,9.53,3.56,10.74,8.36,.06,.22,.11,.44,.15,.67,.08,.42,.5,.67,.91,.56,.22-.06,.44-.11,.67-.14,.42-.07,.86-.11,1.3-.11,1.64,0,3.16,.52,4.41,1.39,.3,.21,.58,.44,.84,.69,.27,.25,.52,.52,.75,.81h0c.18,.23,.47,.33,.75,.26,.36-.1,.73-.17,1.1-.21,.04,0,.09,0,.13-.01,.25-.02,.49-.04,.75-.04s.5,.01,.75,.04c3.9,.38,6.95,3.67,6.95,7.66s-3.06,7.29-6.95,7.66c-.25,.02-.49,.04-.75,.04s-.5-.01-.75-.04v.04h-13.16c-.41,0-.75,.33-.75,.75h0c0,.41,.33,.75,.75,.75h13.91c5.1,0,9.24-4.17,9.19-9.28-.05-5.06-4.25-9.1-9.31-9.1Z"/>
    <g>
      <path class="cls-1" d="M98.94,31h-7.55c-.44,0-.8-.36-.8-.8v-7.93c0-.21,.09-.42,.24-.57,.15-.15,.35-.23,.57-.23h1.99c.52,.02,1.03-.2,1.4-.57l.48-.49c.31-.32,.82-.32,1.13,0s.32,.82,0,1.13l-.48,.49c-.66,.67-1.58,1.06-2.53,1.06h-1.2s0,6.31,0,6.31h6.74c.58,0,1.05-.47,1.05-1.05v-5.26h-2.13c-.44,0-.8-.36-.8-.8s.36-.8,.8-.8h2.94c.44,0,.8,.36,.8,.8v6.06c0,1.46-1.19,2.65-2.65,2.65Z"/>
      <path class="cls-1" d="M91.12,20.11c-.28,0-.55-.14-.69-.4-.22-.38-.09-.87,.29-1.1,1.96-1.13,2.29-3.13,2.29-3.15,.07-.44,.48-.74,.92-.67,.44,.07,.74,.48,.67,.92-.02,.11-.46,2.77-3.07,4.29-.13,.07-.27,.11-.4,.11Z"/>
      <path class="cls-1" d="M98.37,20.67c-.21,0-.41-.08-.57-.24-.31-.31-.31-.82,0-1.13l1.05-1.05h-5.62c-.44,0-.8-.36-.8-.8s.36-.8,.8-.8h7.55c.32,0,.62,.2,.74,.5,.12,.3,.06,.64-.17,.87l-2.42,2.42c-.16,.16-.36,.23-.57,.23Z"/>
      <path class="cls-1" d="M94.97,26.83h-3.58c-.44,0-.8-.36-.8-.8s.36-.8,.8-.8h3.58c.44,0,.8,.36,.8,.8s-.36,.8-.8,.8Z"/>
      <path class="cls-1" d="M100.79,26.83h-3.58c-.44,0-.8-.36-.8-.8s.36-.8,.8-.8h3.58c.44,0,.8,.36,.8,.8s-.36,.8-.8,.8Z"/>
      <path class="cls-1" d="M121.37,18.25h-13.11c-.44,0-.8-.36-.8-.8s.36-.8,.8-.8h13.11c.44,0,.8,.36,.8,.8s-.36,.8-.8,.8Z"/>
      <path class="cls-1" d="M122.77,23.09h-16.56c-.44,0-.8-.36-.8-.8s.36-.8,.8-.8h16.56c.44,0,.8,.36,.8,.8s-.36,.8-.8,.8Z"/>
      <path class="cls-1" d="M122.46,31h-16.02c-.32,0-.62-.2-.74-.5-.12-.3-.06-.64,.17-.87l7.89-7.89c.31-.31,.82-.31,1.13,0,.31,.31,.31,.82,0,1.13l-6.52,6.52h12.15l-3.42-3.42c-.31-.31-.31-.82,0-1.13,.31-.31,.82-.31,1.13,0l4.79,4.79c.23,.23,.3,.57,.17,.87-.12,.3-.42,.5-.74,.5Z"/>
      <path class="cls-1" d="M84.61,22.77c-.4,0-.75-.3-.8-.7l-.51-4.16c-.05-.44,.26-.84,.7-.89,.44-.05,.84,.26,.89,.7l.51,4.16c.05,.44-.26,.84-.7,.89-.03,0-.07,0-.1,0Z"/>
      <path class="cls-1" d="M88.83,22.77s-.07,0-.1,0c-.44-.06-.75-.46-.7-.9l.52-4.16c.06-.44,.46-.75,.9-.7,.44,.06,.75,.46,.7,.9l-.52,4.16c-.05,.41-.4,.7-.79,.7Z"/>
      <path class="cls-1" d="M89.86,29.83l-2.62-5c-.09-.17-.1-.36-.05-.54l.26-.79c.03-.08,.04-.17,.04-.25v-7.61c0-.44-.34-.83-.78-.84s-.82,.35-.82,.8v7.36l-.05,.31-2.18,6.65c-.14,.41,.06,.88,.47,1.03,.09,.03,.19,.05,.28,.05,.34,0,.65-.21,.76-.55l1.23-3.75s0,0,0,0l2.03,3.87c.14,.27,.42,.43,.71,.43,.13,0,.25-.03,.37-.09,.39-.21,.54-.69,.34-1.08Z"/>
      <path class="cls-1" d="M62.73,31c-.2,0-.4-.07-.55-.22-.33-.31-.31-.85,0-1.17l7.6-7.63c.22-.23,.35-.53,.35-.85v-5.7c0-.44,.34-.82,.78-.84s.83,.35,.83,.8v6.57c0,.21-.08,.42-.23,.57l-8.21,8.24c-.16,.16-.36,.24-.57,.24Z"/>
      <path class="cls-1" d="M65.88,23.11c-.28,0-.55-.15-.7-.4l-2.78-4.86c-.22-.38-.09-.87,.3-1.09,.38-.22,.87-.09,1.09,.3l2.78,4.86c.22,.38,.09,.87-.3,1.09-.13,.07-.26,.11-.4,.11Z"/>
      <path class="cls-1" d="M75.74,23.29c-.14,0-.27-.03-.4-.11-.38-.22-.51-.71-.29-1.1l2.8-4.85c.22-.38,.71-.51,1.1-.29s.51,.71,.29,1.1l-2.8,4.85c-.15,.26-.42,.4-.7,.4Z"/>
      <path class="cls-1" d="M78.91,31c-.18,0-.37-.06-.52-.19l-6.21-5.25c-.34-.29-.38-.79-.09-1.13,.29-.34,.79-.38,1.13-.09l6.21,5.25c.34,.29,.38,.79,.09,1.13-.16,.19-.39,.28-.61,.28Z"/>
    </g>
  </g>
</svg>